G04 EAGLE Gerber RS-274X export*
G75*
%MOMM*%
%FSLAX34Y34*%
%LPD*%
%INSolderpaste Top*%
%IPPOS*%
%AMOC8*
5,1,8,0,0,1.08239X$1,22.5*%
G01*
%ADD10R,1.000000X1.400000*%
%ADD11R,0.900000X0.800000*%
%ADD12R,1.400000X1.000000*%
%ADD13R,0.800000X0.900000*%
%ADD14R,0.900000X0.700000*%
%ADD15R,0.700000X0.900000*%
%ADD16R,1.000000X1.100000*%
%ADD17R,1.100000X1.000000*%
%ADD18R,2.500000X1.200000*%
%ADD19R,1.600000X2.300000*%


D10*
X761400Y210100D03*
X770900Y188100D03*
X751900Y188100D03*
D11*
X833400Y208100D03*
X833400Y189100D03*
X854400Y198600D03*
D12*
X536100Y312800D03*
X558100Y322300D03*
X558100Y303300D03*
D13*
X535700Y393400D03*
X554700Y393400D03*
X545200Y414400D03*
D14*
X727400Y185500D03*
X727400Y198500D03*
D15*
X548900Y273900D03*
X535900Y273900D03*
D16*
X557600Y357400D03*
X540600Y357400D03*
D17*
X812600Y188400D03*
X812600Y171400D03*
D15*
X414800Y197400D03*
X401800Y197400D03*
X406000Y222600D03*
X419000Y222600D03*
D18*
X366700Y163200D03*
X366700Y188200D03*
X366700Y213200D03*
D17*
X830000Y81500D03*
X830000Y98500D03*
D16*
X548500Y180000D03*
X531500Y180000D03*
D17*
X740000Y81500D03*
X740000Y98500D03*
D19*
X830000Y-11500D03*
X830000Y51500D03*
X740000Y-11500D03*
X740000Y51500D03*
D17*
X650000Y81500D03*
X650000Y98500D03*
X560000Y81500D03*
X560000Y98500D03*
D19*
X650000Y-11500D03*
X650000Y51500D03*
X560000Y-11500D03*
X560000Y51500D03*
D17*
X480000Y1500D03*
X480000Y18500D03*
X480000Y51500D03*
X480000Y68500D03*
M02*
