G04 EAGLE Gerber RS-274X export*
G75*
%MOMM*%
%FSLAX34Y34*%
%LPD*%
%INSoldermask Top*%
%IPPOS*%
%AMOC8*
5,1,8,0,0,1.08239X$1,22.5*%
G01*
%ADD10C,2.082800*%
%ADD11C,1.727200*%
%ADD12R,1.203200X1.603200*%
%ADD13R,1.103200X1.003200*%
%ADD14R,1.603200X1.203200*%
%ADD15R,1.003200X1.103200*%
%ADD16R,1.103200X0.903200*%
%ADD17R,0.903200X1.103200*%
%ADD18R,1.203200X1.303200*%
%ADD19R,1.303200X1.203200*%
%ADD20R,2.703200X1.403200*%
%ADD21C,1.103200*%
%ADD22C,1.511200*%
%ADD23R,1.511200X1.511200*%
%ADD24R,1.803200X2.503200*%
%ADD25C,1.611200*%
%ADD26C,1.109600*%
%ADD27C,1.009600*%
%ADD28C,1.209600*%


D10*
X427900Y116400D02*
X427900Y135196D01*
D11*
X758700Y254980D02*
X758700Y270220D01*
X784100Y270220D02*
X784100Y254980D01*
X809500Y254980D02*
X809500Y270220D01*
X834900Y270220D02*
X834900Y254980D01*
D12*
X761400Y210100D03*
X770900Y188100D03*
X751900Y188100D03*
D13*
X833400Y208100D03*
X833400Y189100D03*
X854400Y198600D03*
D14*
X536100Y312800D03*
X558100Y322300D03*
X558100Y303300D03*
D15*
X535700Y393400D03*
X554700Y393400D03*
X545200Y414400D03*
D16*
X727400Y185500D03*
X727400Y198500D03*
D17*
X548900Y273900D03*
X535900Y273900D03*
D18*
X557600Y357400D03*
X540600Y357400D03*
D19*
X812600Y188400D03*
X812600Y171400D03*
D17*
X414800Y197400D03*
X401800Y197400D03*
X406000Y222600D03*
X419000Y222600D03*
D20*
X366700Y163200D03*
X366700Y188200D03*
X366700Y213200D03*
D21*
X339200Y152700D03*
X339200Y223700D03*
D11*
X606780Y447700D02*
X622020Y447700D01*
X622020Y422300D02*
X606780Y422300D01*
X606780Y396900D02*
X622020Y396900D01*
X622020Y371500D02*
X606780Y371500D01*
X606780Y346100D02*
X622020Y346100D01*
X622020Y320700D02*
X606780Y320700D01*
X606780Y295300D02*
X622020Y295300D01*
X622020Y269900D02*
X606780Y269900D01*
X397020Y269800D02*
X381780Y269800D01*
X381780Y295200D02*
X397020Y295200D01*
X397020Y320600D02*
X381780Y320600D01*
X381780Y346000D02*
X397020Y346000D01*
X397020Y371400D02*
X381780Y371400D01*
X381780Y396800D02*
X397020Y396800D01*
X397020Y422200D02*
X381780Y422200D01*
X381780Y447600D02*
X397020Y447600D01*
D22*
X901000Y302000D03*
X901000Y327000D03*
X901000Y352000D03*
X901000Y377000D03*
X901000Y402000D03*
X691000Y327000D03*
X691000Y352000D03*
X691000Y377000D03*
X691000Y402000D03*
X691000Y427000D03*
D23*
X691000Y452000D03*
X901000Y427000D03*
D10*
X394700Y135196D02*
X394700Y116400D01*
D19*
X830000Y81500D03*
X830000Y98500D03*
D18*
X548500Y180000D03*
X531500Y180000D03*
D19*
X740000Y81500D03*
X740000Y98500D03*
D24*
X830000Y-11500D03*
X830000Y51500D03*
X740000Y-11500D03*
X740000Y51500D03*
D25*
X383160Y3160D03*
X435790Y3040D03*
X383120Y55740D03*
X435750Y55620D03*
D19*
X650000Y81500D03*
X650000Y98500D03*
X560000Y81500D03*
X560000Y98500D03*
D24*
X650000Y-11500D03*
X650000Y51500D03*
X560000Y-11500D03*
X560000Y51500D03*
D19*
X480000Y1500D03*
X480000Y18500D03*
X480000Y51500D03*
X480000Y68500D03*
D26*
X600000Y130000D03*
X650000Y420000D03*
D27*
X460000Y160000D03*
X460000Y220000D03*
D28*
X380000Y230000D03*
X580000Y350000D03*
D27*
X480000Y160000D03*
X480000Y220000D03*
D28*
X640000Y260000D03*
X640000Y160000D03*
M02*
