M48
;GenerationSoftware,Autodesk,EAGLE,9.5.2*%
;CreationDate,2021-09-02T19:38:25Z*%
FMAT,2
ICI,OFF
METRIC,TZ,000.000
T7C0.400
T6C0.500
T5C0.600
T4C0.800
T3C0.900
T2C1.016
T1C1.118
%
G90
M71
T1
X42790Y11640
X39470Y11640
T2
X38940Y44760
X38940Y42220
X38940Y39680
X38940Y26980
X38940Y37140
X38940Y34600
X38940Y32060
X38940Y29520
X75870Y26260
X78410Y26260
X80950Y26260
X83490Y26260
X61440Y44770
X61440Y42230
X61440Y39690
X61440Y37150
X61440Y34610
X61440Y32070
X61440Y29530
X61440Y26990
T3
X43575Y5562
X33920Y15270
X33920Y22370
X38316Y316
X43579Y304
X38312Y5574
T4
X90100Y35200
X90100Y37700
X69100Y32700
X69100Y35200
X69100Y37700
X69100Y40200
X69100Y42700
X90100Y42700
X90100Y40200
X90100Y30200
X90100Y32700
X69100Y45200
T5
X64000Y16000
X64000Y26000
X58000Y35000
X38000Y23000
T6
X60000Y13000
X65000Y42000
T7
X46000Y22000
X48000Y16000
X48000Y22000
X46000Y16000
M30